<svg xmlns="http://www.w3.org/2000/svg" viewBox="0 0 1024 1024" width="1024" height="1024"><defs>
  <linearGradient id="base" x1="0" y1="0" x2="0" y2="1"><stop offset="0" stop-color="#2A2F38"/><stop offset="0.55" stop-color="#171A20"/><stop offset="1" stop-color="#0B0D10"/></linearGradient>
  <radialGradient id="sheen" cx="0.5" cy="0" r="0.75"><stop offset="0" stop-color="#FFFFFF" stop-opacity="0.16"/><stop offset="1" stop-color="#FFFFFF" stop-opacity="0"/></radialGradient>
  <linearGradient id="orangeRing" x1="0" y1="1" x2="1" y2="0"><stop offset="0" stop-color="#FF5A1F"/><stop offset="1" stop-color="#FFB15C"/></linearGradient>
  <linearGradient id="white" x1="0" y1="0" x2="0" y2="1"><stop offset="0" stop-color="#FFFFFF"/><stop offset="1" stop-color="#E6ECF2"/></linearGradient>
  <filter id="glow" x="-50%" y="-50%" width="200%" height="200%"><feGaussianBlur stdDeviation="26"/></filter>
  <filter id="glowS" x="-50%" y="-50%" width="200%" height="200%"><feGaussianBlur stdDeviation="14"/></filter></defs><g><line x1="512" y1="239.83999999999997" x2="512" y2="272.6" stroke="#FFFFFF" stroke-opacity="0.6" stroke-width="8.82" stroke-linecap="round" transform="rotate(-135 512 512)"/><line x1="512" y1="239.83999999999997" x2="512" y2="258.74" stroke="#FFFFFF" stroke-opacity="0.35" stroke-width="6.3" stroke-linecap="round" transform="rotate(-105 512 512)"/><line x1="512" y1="239.83999999999997" x2="512" y2="258.74" stroke="#FFFFFF" stroke-opacity="0.35" stroke-width="6.3" stroke-linecap="round" transform="rotate(-75 512 512)"/><line x1="512" y1="239.83999999999997" x2="512" y2="272.6" stroke="#FFFFFF" stroke-opacity="0.6" stroke-width="8.82" stroke-linecap="round" transform="rotate(-45 512 512)"/><line x1="512" y1="239.83999999999997" x2="512" y2="258.74" stroke="#FFFFFF" stroke-opacity="0.35" stroke-width="6.3" stroke-linecap="round" transform="rotate(-15 512 512)"/><line x1="512" y1="239.83999999999997" x2="512" y2="258.74" stroke="#FFFFFF" stroke-opacity="0.35" stroke-width="6.3" stroke-linecap="round" transform="rotate(15 512 512)"/><line x1="512" y1="239.83999999999997" x2="512" y2="272.6" stroke="#FFFFFF" stroke-opacity="0.6" stroke-width="8.82" stroke-linecap="round" transform="rotate(45 512 512)"/><line x1="512" y1="239.83999999999997" x2="512" y2="258.74" stroke="#FFFFFF" stroke-opacity="0.35" stroke-width="6.3" stroke-linecap="round" transform="rotate(75 512 512)"/><line x1="512" y1="239.83999999999997" x2="512" y2="258.74" stroke="#FFFFFF" stroke-opacity="0.35" stroke-width="6.3" stroke-linecap="round" transform="rotate(105 512 512)"/><line x1="512" y1="239.83999999999997" x2="512" y2="272.6" stroke="#FFFFFF" stroke-opacity="0.6" stroke-width="8.82" stroke-linecap="round" transform="rotate(135 512 512)"/><g filter="url(#glow)" opacity="0.5"><circle cx="512" cy="512" r="207.9" fill="none" stroke="#FF6B35" stroke-width="49.14" stroke-linecap="round" stroke-dasharray="979.7 1306.3" transform="rotate(90 512 512)"/></g><circle cx="512" cy="512" r="207.9" fill="none" stroke="#FFFFFF" stroke-opacity="0.08" stroke-width="49.14"/><circle cx="512" cy="512" r="207.9" fill="none" stroke="url(#orangeRing)" stroke-width="49.14" stroke-linecap="round" stroke-dasharray="979.7 1306.3" transform="rotate(90 512 512)"/><g filter="url(#glowS)" opacity="0.3"><path d="M512.0 395.4 L418.8 530.6 L500.3 530.6 L479.4 628.5 L605.2 488.7 L523.7 488.7 L595.9 395.4 Z" fill="#FFFFFF" stroke="#FFFFFF" stroke-width="16" stroke-linejoin="round"/></g><path d="M512.0 395.4 L418.8 530.6 L500.3 530.6 L479.4 628.5 L605.2 488.7 L523.7 488.7 L595.9 395.4 Z" fill="url(#white)" stroke="url(#white)" stroke-width="16" stroke-linejoin="round"/></g></svg>
